<?xml version="1.0" encoding="utf-8"?>
<!-- Generator: Adobe Illustrator 23.0.3, SVG Export Plug-In . SVG Version: 6.00 Build 0)  -->
<svg version="1.1" id="Layer_1" xmlns="http://www.w3.org/2000/svg" xmlns:xlink="http://www.w3.org/1999/xlink" x="0px" y="0px"
	 viewBox="0 0 120 120" style="enable-background:new 0 0 120 120;" xml:space="preserve">
<style type="text/css">
	.st0{fill:#FFFFFF;}
</style>
<g>
	<path class="st0" d="M118.36,103.83c1.09,1.09,1.64,2.42,1.64,3.98s-0.55,2.89-1.64,3.98l-6.56,6.56
		c-1.09,1.09-2.42,1.64-3.98,1.64s-2.89-0.55-3.98-1.64L80.39,94.92c-1.09-1.09-1.64-2.42-1.64-3.98v-3.75
		C70,94.06,60,97.5,48.75,97.5c-8.91,0-17.07-2.19-24.49-6.56s-13.32-10.27-17.7-17.7S0,57.66,0,48.75s2.19-17.07,6.56-24.49
		s10.27-13.32,17.7-17.7S39.84,0,48.75,0s17.07,2.19,24.49,6.56s13.32,10.27,17.7,17.7s6.56,15.59,6.56,24.49
		c0,11.25-3.44,21.25-10.31,30h3.75c1.56,0,2.89,0.55,3.98,1.64L118.36,103.83z M48.75,78.75c5.47,0,10.51-1.33,15.12-3.98
		s8.24-6.29,10.9-10.9s3.98-9.65,3.98-15.12s-1.33-10.51-3.98-15.12s-6.29-8.24-10.9-10.9s-9.65-3.98-15.12-3.98
		s-10.51,1.33-15.12,3.98s-8.24,6.29-10.9,10.9s-3.98,9.65-3.98,15.12s1.33,10.51,3.98,15.12s6.29,8.24,10.9,10.9
		S43.28,78.75,48.75,78.75z"/>
</g>
</svg>
