<?xml version="1.0" encoding="utf-8"?>
<!-- Generator: Adobe Illustrator 23.0.3, SVG Export Plug-In . SVG Version: 6.00 Build 0)  -->
<svg version="1.1" id="Layer_3" xmlns="http://www.w3.org/2000/svg" xmlns:xlink="http://www.w3.org/1999/xlink" x="0px" y="0px"
	 viewBox="0 0 98.43 139.96" style="enable-background:new 0 0 98.43 139.96;" xml:space="preserve">
<style type="text/css">
	.st0{fill:none;stroke:#FFFFFF;stroke-width:0.6619;}
	.st1{fill:#FFFFFF;}
	.st2{fill:none;stroke:#FFFFFF;stroke-width:0.7765;}
</style>
<g>
	<path class="st0" d="M0,0.23l0.02,31.48l0.01,50.17c0,17.94,1.19,23.32,11.72,35.7c10.53,12.38,37.48,22.38,37.48,22.38
		s26.93-10,37.47-22.38c10.53-12.38,11.7-17.76,11.7-35.7l0.03-50.17l0.01-31.48c0,0-12.13,7.22-24.47,6.32
		C59.96,5.52,49.23,0,49.23,0S38.47,5.52,24.48,6.55C12.13,7.45,0,0.23,0,0.23z"/>
	<g>
		<path class="st1" d="M72.49,10.28C59.32,9.3,49.23,4.11,49.23,4.11c0,0-10.39,5.21-23.29,6.16C14.31,11.14,3.23,5.8,3.23,5.8
			l0.01,27.83l0.02,47.22c0,16.88,0.78,22.28,10.69,33.93c9.92,11.65,35.28,21.06,35.28,21.06s25.34-9.41,35.26-21.06
			c9.91-11.65,10.41-16.72,10.41-33.6l0.03-47.22V6.24C94.93,6.24,84.12,11.14,72.49,10.28z M82.74,59.53l-7.21-10.47
			c0,5.24,0,13.67,0,18.76c0,7.78-2.44,12.4-4.47,14.56c-5,5-11.35,6.29-16.12,6.59l-0.01,3.39c0,3.81,0.73,6.41,4.35,6.41
			c0.06,0,6.74,0,6.74,0v11.2H49.24h-0.15h-16.8v-11.2c0,0,6.69,0,6.74,0c3.63,0,4.35-2.6,4.35-6.41l-0.01-3.39
			c-4.76-0.3-11.11-1.58-16.11-6.58c-2.04-2.17-4.47-6.78-4.47-14.56c0-5.08,0-13.51,0-18.75l-7.22,10.46l-5.28-3.05l4.81-17.25
			c0,0,2.5-0.66,7.56-1.35c-0.36-4.11-1.4-8.89-4.2-10.18l0.4-1.96c0,0,15.76-2.57,19.47-4.47l1.09,6.04c0,0-7.56,0.57-7.7,9.62
			c4.77-0.37,10.57-0.63,17.44-0.63c6.87,0,12.67,0.26,17.44,0.63c-0.14-9.06-7.7-9.62-7.7-9.62l1.08-6.04
			c3.72,1.9,19.48,4.47,19.48,4.47l0.4,1.96c-2.8,1.3-3.84,6.07-4.2,10.18c5.06,0.69,7.57,1.35,7.57,1.35l4.81,17.25L82.74,59.53z"
			/>
		<path class="st1" d="M31.74,47.08c0,7.67-0.01,16.99-0.01,16.99s-0.1,4.54,1.01,7.42c1.28,3.31,3.21,5.1,10.61,5.65l-0.05-30.5
			C43.31,46.64,38.2,46.6,31.74,47.08z"/>
		<path class="st1" d="M66.58,47.08c-6.46-0.48-11.56-0.44-11.56-0.44l-0.05,30.5c7.4-0.54,9.33-2.34,10.6-5.65
			c1.11-2.88,1.02-7.42,1.02-7.42S66.58,54.75,66.58,47.08z"/>
	</g>
	<g>
		<path class="st2" d="M82.96,38.85c0,0-11.13-2.94-34.06-2.94c-22.94,0-34.06,2.94-34.06,2.94L10.03,56.1l5.28,3.05l7.98-11.57
			c9.73-1.4,19.75-1.31,19.75-1.31l0.07,45.71c0,3.81-0.72,6.41-4.35,6.41c-0.05,0-6.74,0-6.74,0v11.2h16.8h0.15h16.78v-11.2
			c0,0-6.68,0-6.74,0c-3.62,0-4.35-2.6-4.35-6.41l0.08-45.71c0,0,10.01-0.09,19.75,1.31l7.97,11.57l5.29-3.05L82.96,38.85z"/>
		<polygon class="st2" points="48.89,35.91 48.89,35.91 48.9,35.91 		"/>
	</g>
</g>
</svg>
