<?xml version="1.0" encoding="utf-8"?>
<!-- Generator: Adobe Illustrator 23.0.6, SVG Export Plug-In . SVG Version: 6.00 Build 0)  -->
<svg version="1.1" id="Layer_3" xmlns="http://www.w3.org/2000/svg" xmlns:xlink="http://www.w3.org/1999/xlink" x="0px" y="0px"
	 viewBox="0 0 98.99 140.87" style="enable-background:new 0 0 98.99 140.87;" xml:space="preserve">
<style type="text/css">
	.st0{fill:#FFFFFF;stroke:#255C4E;stroke-width:1.3021;}
	.st1{fill:#255C4E;}
	.st2{fill:#FFFFFF;stroke:#255C4E;stroke-width:1.0013;}
</style>
<g>
	<path class="st0" d="M0.66,1.21l0.01,31.26l0.02,49.82c0,17.81,1.17,23.16,11.63,35.45c10.46,12.29,37.22,22.22,37.22,22.22
		s26.74-9.93,37.2-22.22c10.46-12.29,11.62-17.64,11.62-35.45l0.03-49.82L98.4,1.21c0,0-12.04,7.17-24.3,6.27
		c-13.9-1.02-24.55-6.5-24.55-6.5s-10.68,5.48-24.57,6.5C12.7,8.38,0.66,1.21,0.66,1.21z"/>
	<path class="st1" d="M3.87,6.74l0.01,27.64l0.01,46.89c0,16.76,0.77,22.12,10.62,33.7c9.84,11.57,35.03,20.91,35.03,20.91
		s25.16-9.34,35.01-20.91C94.4,103.39,94.9,98.36,94.9,81.6l0.03-46.89l0.01-27.53c0,0-10.74,4.85-22.28,4
		c-13.08-0.96-23.11-6.12-23.11-6.12c0,0-10.32,5.18-23.13,6.12C14.87,12.04,3.87,6.74,3.87,6.74z"/>
	<g>
		<path class="st2" d="M49.48,89.36c-3.41,0-14.16,1.01-21.75-6.58c-2.02-2.15-4.43-6.73-4.43-14.46c0-7.73,0-23.25,0-23.25
			s0.84-14.21-4.3-16.59l0.4-1.95c0,0,15.65-2.55,19.34-4.44l1.08,5.99c0,0-7.66,0.56-7.66,9.79c0.06-0.05,0.03,26.72,0.03,26.72
			s-0.1,4.51,1.01,7.37c1.54,4,4.05,5.78,16.25,5.78"/>
		<path class="st2" d="M49.48,89.36c3.41,0,14.16,1.01,21.75-6.58c2.02-2.15,4.44-6.73,4.44-14.46c0-7.73,0-23.25,0-23.25
			s-0.85-14.21,4.3-16.59l-0.4-1.95c0,0-15.65-2.55-19.34-4.44l-1.07,5.99c0,0,7.65,0.56,7.65,9.79
			c-0.05-0.05-0.03,26.72-0.03,26.72s0.09,4.51-1.01,7.37c-1.54,4-4.04,5.78-16.24,5.78"/>
		<path class="st2" d="M49.48,37.01c22.77,0,33.82,2.92,33.82,2.92l4.77,17.13l-5.25,3.03L74.91,48.6
			c-9.67-1.39-19.62-1.31-19.62-1.31l-0.07,45.4c0,3.78,0.72,6.36,4.32,6.36c0.05,0,6.69,0,6.69,0v11.13H49.41h0.14H32.73V99.05
			c0,0,6.65,0,6.69,0c3.6,0,4.31-2.58,4.31-6.36l-0.07-45.4c0,0-9.95-0.08-19.61,1.31l-7.93,11.49l-5.24-3.03l4.77-17.13
			C15.66,39.94,26.7,37.01,49.48,37.01L49.48,37.01z"/>
	</g>
</g>
</svg>
